<svg viewBox="0 0 28 28" class="svg-gear">
  <path d="M27 14c0-1-.7-2-1.6-2.3-.8-.3-1.6-1-1.9-1.6a4 4 0 0 1 .2-2.6c.4-.8.2-2-.5-2.7-.7-.7-2-1-2.7-.5a4 4 0 0 1-2.6.2c-.5-.3-1.3-1-1.6-2A2.6 2.6 0 0 0 14 1c-1 0-2 .7-2.3 1.6-.3.8-1 1.6-1.6 1.9a4 4 0 0 1-2.6-.2c-.8-.4-2-.2-2.7.5-.7.7-1 2-.5 2.7.4.9.4 2 .2 2.6-.3.5-1 1.3-2 1.6C1.8 12 1 13 1 14c0 1 .7 2 1.6 2.3.8.3 1.6 1 1.9 1.6a4 4 0 0 1-.2 2.6c-.4.8-.2 2 .5 2.7.7.7 2 1 2.7.5a4 4 0 0 1 2.6-.2c.5.3 1.3 1 1.6 2C12 26.2 13 27 14 27c1 0 2-.7 2.3-1.6.3-.8 1-1.6 1.6-1.9a4 4 0 0 1 2.6.2c.8.4 2 .2 2.7-.5.7-.7 1-2 .5-2.7a4 4 0 0 1-.2-2.6c.3-.5 1-1.3 2-1.6C26.2 16 27 15 27 14zm-13 6a6 6 0 1 1 0-12 6 6 0 0 1 0 12z"/>
</svg>
