<svg viewBox="0 0 28 28" class="svg-nextcode">
  <path d="M7.2 17c1 0 2-.6 2.4-1.5l-1.4-.8c-.2.4-.6.6-1 .6-.8 0-1.3-.5-1.3-1.3s.5-1.3 1.2-1.3c.5 0 .9.2 1 .6l1.5-.8A2.8 2.8 0 0 0 7.2 11a2.9 2.9 0 0 0-3 3 3 3 0 0 0 3 3zm5.5 0a3 3 0 0 0 2.9-3 3 3 0 0 0-3-3 3 3 0 0 0-2.8 3 3 3 0 0 0 2.9 3zm0-1.7c-.7 0-1.3-.5-1.3-1.3s.6-1.3 1.3-1.3c.7 0 1.2.5 1.2 1.3s-.5 1.3-1.2 1.3zm7.5-5.7v2.1a2 2 0 0 0-1.6-.7C17 11 16 12.3 16 14s1.1 3 2.6 3a2 2 0 0 0 1.6-.7v.5h1.6V9l-1.6.6zm-1.3 5.8c-.8 0-1.3-.5-1.3-1.4 0-.8.5-1.4 1.3-1.4s1.3.6 1.3 1.4c0 .9-.5 1.4-1.3 1.4zm5.2-.7h3.8l.1-.7c0-1.7-1.2-3-2.8-3-1.7 0-2.9 1.3-2.9 3s1.2 3 3 3c1 0 1.9-.4 2.4-1.2l-1.3-.7c-.2.2-.6.4-1 .4-.6 0-1.1-.2-1.3-.8zm0-1.3c0-.6.5-.9 1.1-.9.5 0 1 .3 1.2 1H24zM3.7 14L3 15.3l-1 1.5H0l2-3-2-2.7h2l.9 1.4 1 1.4z"/>
</svg>
