<svg viewBox="0 0 24 24" class="svg-toggles">
  <path d="
    M  5,11
    C  3,11   1, 9   1, 7
    C  1, 5   3, 3   5, 3
    L 19, 3
    C 21, 3  23, 5  23, 7
    C 23, 9  21,11  19,11
    L  5,11
    Z

    M 19,13
    C 21,13  23,15  23,17
    C 23,19  21,21  19,21
    L  5,21
    C  3,21   1,19   1,17
    C  1,15   3,13   5,13
    L 19,13
    Z

    M 19,19
    C 20,19  21,18  21,17
    C 21,16  20,15  19,15
    C 18,15  17,16  17,17
    C 17,18  18,19  19,19
    Z

    M  5, 5
    C  4, 5   3, 6   3, 7
    C  3, 8   4, 9   5, 9
    C  6, 9   7, 8   7, 7
    C  7, 6   6, 5   5, 5
    Z
  "></path>
</svg>
